<?xml version="1.0" encoding="UTF-8"?>
<svg width="1024" height="1024" viewBox="0 0 1024 1024" xmlns="http://www.w3.org/2000/svg">
  <!-- Background -->
  <rect width="1024" height="1024" fill="#4CAF50" rx="180"/>
  
  <!-- Icon Design - Health/Wellness Theme -->
  <!-- Heart Shape -->
  <path d="M 512 350 
           C 512 350, 380 250, 280 250
           C 180 250, 150 320, 150 400
           C 150 550, 512 750, 512 750
           C 512 750, 874 550, 874 400
           C 874 320, 844 250, 744 250
           C 644 250, 512 350, 512 350 Z" 
        fill="#FFFFFF" opacity="0.95"/>
  
  <!-- Plus Symbol (Medical/Health) -->
  <rect x="462" y="450" width="100" height="300" fill="#FFFFFF" opacity="0.3" rx="20"/>
  <rect x="362" y="550" width="300" height="100" fill="#FFFFFF" opacity="0.3" rx="20"/>
  
  <!-- Leaf accent (Wellness/Natural) -->
  <ellipse cx="680" cy="380" rx="60" ry="100" fill="#81C784" opacity="0.7" transform="rotate(-30 680 380)"/>
  <path d="M 680 330 Q 680 400, 720 420" stroke="#66BB6A" stroke-width="8" fill="none" opacity="0.7"/>
  
  <!-- App Name Text -->
  <text x="512" y="880" font-family="Arial, sans-serif" font-size="80" font-weight="bold" 
        fill="#FFFFFF" text-anchor="middle">BienestarApp</text>
</svg>
